<?xml version="1.0" encoding="utf-8"?>
<!-- Generator: Adobe Illustrator 16.0.0, SVG Export Plug-In . SVG Version: 6.00 Build 0)  -->
<!DOCTYPE svg PUBLIC "-//W3C//DTD SVG 1.1//EN" "http://www.w3.org/Graphics/SVG/1.1/DTD/svg11.dtd">
<svg version="1.1" xmlns="http://www.w3.org/2000/svg" xmlns:xlink="http://www.w3.org/1999/xlink" x="0px" y="0px"
	 width="233.021px" height="212.254px" viewBox="0 0 233.021 212.254" enable-background="new 0 0 233.021 212.254"
	 xml:space="preserve">
<g id="Layer_1">
</g>
<g id="Layer_4">
</g>
<g id="Layer_5" display="none">
	<rect x="-80.311" y="-81" display="inline" fill="#1D2228" width="400" height="400"/>
</g>
<g id="Layer_2">
	<path fill="#76CEDC" d="M52.022,0v136.333c0,0,20.666,13.333,33.999,32.666s24,38.667,24,38.667v-119c0,0-2.453-22.041-22.2-51.33
		C70.305,11.356,52.022,0,52.022,0z"/>
	<path fill="#67C8C3" d="M38.849,30.44v111.81c0,0,12.545,8.329,25.571,21.832c16.063,16.652,28.27,39.293,28.27,39.293
		s-16.209-14.688-31.165-23.372s-35.702-18.815-35.702-18.815V23.88c0,0,2.207,0.372,6.665,2.717
		C37.404,29.183,38.849,30.44,38.849,30.44z"/>
	<path fill="#2093A3" d="M12.933,50.082l0.115,120.017c0,0,20.866,8.623,37.298,17.678c19.038,10.49,32.83,24.478,32.83,24.478
		s-21.369-9.713-40.795-16.124C25.958,190.71,0,186.417,0,186.417V47.768c0,0,2.043-0.14,7.024,0.604
		C11.534,49.045,12.933,50.082,12.933,50.082z"/>
	<path fill="#76CEDC" d="M180.999,0v136.333c0,0-20.665,13.333-33.999,32.666s-24,38.667-24,38.667v-119
		c0,0,2.453-22.041,22.2-51.33C162.717,11.356,180.999,0,180.999,0z"/>
	<path fill="#67C8C3" d="M194.173,30.44v111.81c0,0-12.546,8.329-25.571,21.832c-16.063,16.652-28.27,39.293-28.27,39.293
		s16.209-14.688,31.165-23.372s35.702-18.815,35.702-18.815V23.88c0,0-2.207,0.372-6.665,2.717
		C195.617,29.183,194.173,30.44,194.173,30.44z"/>
	<path fill="#2093A3" d="M220.088,50.082l-0.114,120.017c0,0-20.866,8.623-37.298,17.678c-19.038,10.49-32.83,24.478-32.83,24.478
		s21.368-9.713,40.795-16.124c16.422-5.42,42.381-9.713,42.381-9.713V47.768c0,0-2.043-0.14-7.024,0.604
		C221.487,49.045,220.088,50.082,220.088,50.082z"/>
</g>
<g id="Layer_3">
	<path fill="#33B3C1" d="M110.021,110.217c0,0-0.034,18.373-6.234,31.692s-18.856,25.545-18.856,25.545s7.076,10.384,12.146,18.408
		c5.58,8.831,12.945,21.804,12.945,21.804V110.217z"/>
	<path fill="#33B3C1" d="M123,110.217c0,0,0.034,18.373,6.234,31.692s18.856,25.545,18.856,25.545s-7.075,10.384-12.146,18.408
		c-5.58,8.831-12.945,21.804-12.945,21.804V110.217z"/>
</g>
</svg>
