<?xml version="1.0" encoding="utf-8"?>
<!-- Generator: Adobe Illustrator 16.0.0, SVG Export Plug-In . SVG Version: 6.00 Build 0)  -->
<!DOCTYPE svg PUBLIC "-//W3C//DTD SVG 1.1//EN" "http://www.w3.org/Graphics/SVG/1.1/DTD/svg11.dtd">
<svg version="1.1" id="Layer_1" xmlns="http://www.w3.org/2000/svg" xmlns:xlink="http://www.w3.org/1999/xlink" x="0px" y="0px"
	 width="1180px" height="1180px" viewBox="-440 -440 1180 1180" enable-background="new -440 -440 1180 1180" xml:space="preserve">
<g id="Background" display="none">
	
		<linearGradient id="SVGID_1_" gradientUnits="userSpaceOnUse" x1="-54" y1="648.498" x2="-54.0001" y2="-559.4785" gradientTransform="matrix(1 0 0 -1 204 195)">
		<stop  offset="0" style="stop-color:#73B3E6;stop-opacity:0.86"/>
		<stop  offset="1" style="stop-color:#4195D6"/>
	</linearGradient>
	<rect x="-450" y="-453.498" display="inline" fill="url(#SVGID_1_)" width="1200" height="1207.977"/>
</g>
<linearGradient id="SVGID_2_" gradientUnits="userSpaceOnUse" x1="149.9995" y1="-429.6943" x2="149.9995" y2="735.0005">
	<stop  offset="0" style="stop-color:#73B3E6;stop-opacity:0.86"/>
	<stop  offset="1" style="stop-color:#4195D6"/>
</linearGradient>
<path fill="url(#SVGID_2_)" d="M728.5,387.896C728.5,579.63,573.125,735,381.402,735H-81.402
	C-273.089,735-428.5,579.63-428.5,387.896V-82.591c0-191.692,155.411-347.104,347.098-347.104h462.804
	c191.723,0,347.098,155.411,347.098,347.104V387.896z"/>
<g id="Placeholder">
	<path fill="#FFFFFF" d="M150.054-248.585c-171.441,0-310.95,139.385-310.95,310.835c0,229.114,271.293,459.506,282.835,469.209
		c15.293,12.894,37.427,13.719,53.596,2.112c11.624-8.424,285.361-208.463,285.361-471.322
		C460.896-109.201,321.45-248.585,150.054-248.585z"/>
</g>
<g id="Layer_3" display="none">
	<g display="inline">
		<g id="_x33_56._Play">
			<g>
				<path fill="#4296D6" d="M343.813-61.385c-61.857-106.997-198.679-143.672-305.67-81.862
					C-68.854-81.485-105.529,55.337-43.763,162.328c61.806,106.99,198.67,143.67,305.663,81.912
					C368.801,182.471,405.574,45.608,343.813-61.385z M239.516,205.452C153.876,254.9,44.417,225.595-4.987,139.944
					C-54.434,54.341-25.081-55.113,60.522-104.515c85.557-49.445,195.057-20.096,244.502,65.509
					C354.385,46.604,325.08,156.008,239.516,205.452z M241.412,39.573l-137-79.92c-12.486-7.319-22.561-1.468-22.5,12.999
					l0.702,158.622c0.059,14.47,10.255,20.382,22.792,13.117l135.992-78.515C253.931,58.668,253.938,46.846,241.412,39.573z"/>
			</g>
		</g>
	</g>
</g>
<g id="Layer_3_copy">
	<g>
		<g id="_x33_56._Play_1_">
			<g>
				<path fill="#4296D6" d="M347.979-55.479C285.06-164.354,145.831-201.676,36.959-138.8
					C-71.959-75.932-109.238,63.34-46.364,172.213c62.871,108.871,202.142,146.239,311.015,83.327
					C373.521,192.708,410.896,53.438,347.979-55.479z M241.907,216.146c-87.163,50.28-198.558,20.408-248.836-66.679
					C-57.255,62.341-27.378-49.092,59.703-99.369c87.121-50.28,198.513-20.45,248.794,66.676
					C358.865,54.436,328.992,165.775,241.907,216.146z"/>
			</g>
		</g>
	</g>
	<g id="Layer_4">
		<path fill="#4296D6" d="M236.757,93.219c8.796-14.757,14.645-33.395,15.723-51.842c0.797-11.839-1.889-24.261-7.626-35.926
			c-8.916-18.342-24.365-28.655-39.155-38.615c-11.119-7.438-21.563-14.466-29.044-24.487l-1.296-1.768
			c-4.438-5.907-9.361-12.583-10.088-18.158c-0.81-5.682-5.961-9.72-11.593-9.375c-5.717,0.36-10.134,5.103-10.134,10.84v194.185
			c-9.135-5.512-20.384-8.912-32.692-8.912c-30.008,0-54.491,19.564-54.491,43.588c0,24.033,24.482,43.599,54.491,43.599
			c30.056,0,54.536-19.565,54.536-43.599V25.723c16.315,6.265,43.13,22.204,50.513,59.364c-1.401,2.046-2.693,4.216-4.217,5.968
			c-3.988,4.518-3.526,11.424,0.949,15.359c4.549,4.033,11.368,3.518,15.351-0.995c2.928-3.292,5.514-7.155,8.069-11.203
			C236.286,93.875,236.531,93.574,236.757,93.219z"/>
	</g>
</g>
</svg>
